<?xml version="1.0" encoding="UTF-8"?>
<svg width="752pt" height="752pt" version="1.1" viewBox="0 0 752 752" xmlns="http://www.w3.org/2000/svg">
 <path d="m425.86 479.11c1.3828 2.1016 1.8711 4.668 1.3594 7.1289-0.51172 2.4648-1.9805 4.6211-4.0859 6-12.086 7.9375-26.066 16.027-42.734 24.758h-0.003907c-2.7344 1.4219-5.9922 1.4219-8.7305 0-136.34-70.488-156.68-146.24-156.68-185.13 0-54.918 37.449-97.938 85.242-97.938 28.953 0.097657 56.5 12.496 75.773 34.098 19.277-21.602 46.824-34 75.773-34.098 2.5391 0.15625 5.0703 0.44141 7.5781 0.85547 0.45703-0.13281 0.92578-0.23047 1.4023-0.28516 1.3477 0.015625 2.6758 0.3125 3.9023 0.87109 21.539 4.8984 40.641 17.289 53.895 34.965 13.254 17.672 19.801 39.48 18.469 61.531-0.46875 25.039-7.7812 49.477-21.141 70.66-1.2305 2.2656-3.332 3.9336-5.8203 4.6172-2.4883 0.68359-5.1445 0.32031-7.3594-1-2.2148-1.3203-3.7969-3.4883-4.375-6.0039-0.58203-2.5117-0.10938-5.1562 1.3008-7.3125 11.574-18.266 17.953-39.34 18.449-60.961 0-45.047-28.414-78.992-66.301-78.992-26.984 0.21484-52.219 13.406-67.797 35.441-1.8672 2.5352-4.8281 4.0312-7.9766 4.0312-3.1445 0-6.1055-1.4961-7.9727-4.0312-13.945-19.238-35.285-31.781-58.875-34.609-32.188 4.8516-56.281 37.488-56.281 78.16 0 56.414 47.074 113.38 132.6 160.81 10.078-5.5898 19.359-11.023 27.355-16.273v0.003906c4.3516-2.8203 10.16-1.6094 13.031 2.707zm82.746-36.805h-28.418v-28.418c0-5.2305-4.2383-9.4688-9.4688-9.4688s-9.4727 4.2383-9.4727 9.4688v28.418h-28.414c-5.2305 0-9.4727 4.2383-9.4727 9.4688 0 5.2305 4.2422 9.4727 9.4727 9.4727h28.414v28.414c0 5.2305 4.2422 9.4727 9.4727 9.4727s9.4688-4.2422 9.4688-9.4727v-28.414h28.418c5.2305 0 9.4688-4.2422 9.4688-9.4727 0-5.2305-4.2383-9.4688-9.4688-9.4688z"/>
</svg>
